<?xml version="1.0" encoding="UTF-8"?>
<!-- Generated by Pixelmator Pro 2.3.8 -->
<svg width="4312" height="762" viewBox="0 0 4312 762" xmlns="http://www.w3.org/2000/svg" xmlns:xlink="http://www.w3.org/1999/xlink">
    <g id="Group">
        <path id="Path" fill="#ffffff" stroke="none" d="M 819.38385 164.71521 L 751.248718 102.600403 L 752.540283 37.595215 L 542.018433 230.31189 L 247.258423 230.288513 C 228.263748 230.287048 199.04454 237.050293 185.792786 250.564972 C 172.546936 264.121307 165.935791 280.391418 165.93428 299.328735 L 165.92514 414.891418 L 227.727814 414.896301 L 227.736832 300.953674 L 252.963913 261.955688 L 252.952545 405.609009 L 227.725403 445.388306 L 227.882813 562.112305 C 224.815094 561.747498 221.783951 561.19519 218.617294 561.194946 C 194.919937 561.193054 174.032394 572.259155 160.380386 589.190308 L 95.463058 589.185181 L 95.459206 637.821167 L 144.412552 637.825073 C 146.284409 676.585205 178.6577 707.567749 218.604355 707.570923 C 258.60434 707.574097 290.950806 676.603333 292.828552 637.836792 L 549.748535 637.857178 C 551.620422 676.61731 583.993713 707.599854 623.945679 707.603027 C 663.934998 707.606201 696.286804 676.635437 698.169922 637.868896 L 744.039185 637.872559 L 744.04303 589.236511 L 682.220398 589.231628 C 668.565735 572.298584 647.691956 561.228882 623.962585 561.227051 C 622.186584 561.226868 620.488525 561.638184 618.733337 561.747437 L 618.737488 443.799438 L 723.641785 204.487732 L 798.463074 222.020325 C 807.728577 223.567993 816.08313 221.381104 823.588867 215.475403 C 831.125793 209.538513 834.829529 201.919006 834.830261 192.606995 C 834.820801 180.74762 829.670532 171.44519 819.379211 164.715088 Z M 218.611237 660.454285 C 203.960571 660.453125 192.06015 648.790649 192.061295 634.394836 C 192.062439 620.014832 203.964417 608.322449 218.615356 608.323608 C 233.292694 608.324768 245.198456 620.018372 245.197311 634.399048 C 245.190948 648.789734 233.294159 660.455444 218.611237 660.454285 Z M 279.018188 589.204346 L 279.18866 475.387054 L 279.048065 475.267242 L 378.484253 355.097809 L 389.842865 364.26535 L 313.966248 455.956696 L 366.231689 589.211487 Z M 567.658447 586.919922 C 567.022949 587.638611 566.569763 588.482361 565.949951 589.227112 L 421.069946 589.215637 L 373.100952 466.91449 L 411.31839 415.354858 L 567.678345 415.585938 Z M 623.94873 608.345703 C 638.626038 608.346863 650.531799 620.040466 650.53064 634.421143 C 650.52948 648.817139 638.627502 660.477539 623.94458 660.476318 C 609.288574 660.47522 597.393494 648.812805 597.394653 634.416931 C 597.401001 620.047607 609.297791 608.344543 623.94873 608.345703 Z"/>
        <path id="path1" fill="#ffffff" stroke="none" d="M 693.69812 68.510498 C 687.291931 67.629822 680.797119 67.009521 674.15686 67.008972 C 597.167542 67.002869 534.765381 128.252625 534.759399 203.811279 C 534.759094 207.352844 535.029602 210.816528 535.310608 214.285339 Z"/>
    </g>
    <text id="Trojan--Horse" transform="matrix(1 7.9e-05 -7.9e-05 1 0.029427 -0.379272)" xml:space="preserve" x="957" y="569" font-family="Abril Fatface" font-size="521.214719" fill="#ffffff">Trojan  Horse</text>
    <g id="noun-horse-1023744">
        <path id="path2" fill="#000000" stroke="none" visibility="hidden" d="M 582.973389 234.359985 C 582.973389 234.359985 585.108826 297.078674 515.984009 338.417358 C 446.847992 379.750671 449.702667 413.963989 449.702667 413.963989 C 449.702667 413.963989 374.156006 411.828552 360.619995 473.833344 C 347.084015 535.838135 370.588806 563.625366 344.223999 599.984009 C 344.223999 599.984009 375.584015 585.02002 377.718689 537.973389 C 377.718689 537.973389 384.130127 591.426636 360.614685 627.776001 C 360.614685 627.776001 391.254669 612.812012 395.532013 589.291992 C 395.532013 589.291992 390.552795 633.47998 400.521606 654.854614 C 400.521606 654.854614 419.052277 634.187988 416.204254 599.266724 C 416.204254 599.266724 422.089752 617.261353 439.725616 627.422607 C 439.725616 627.422607 427.959991 586.802612 425.82959 538.329346 C 425.82959 538.329346 435.089996 559.714722 448.272247 571.121338 C 448.272247 571.121338 450.407745 526.93335 430.808258 503.761353 C 411.209595 480.600006 425.105194 453.515991 447.557587 450.313324 C 447.557587 450.313324 441.146149 498.062653 485.333618 520.157349 C 485.333618 520.157349 495.307617 548.66272 469.650909 582.870728 C 469.650909 582.870728 473.921753 629.917358 510.984253 671.245361 C 510.984253 671.245361 495.844269 681.141174 507.869751 689.427979 L 504.218658 704.214661 C 504.218658 704.214661 529.692017 709.558411 551.609375 707.422913 C 551.609375 707.422913 549.473877 684.610901 535.401367 670.188232 C 535.401367 670.188232 503.333344 615.657593 518.297363 594.81897 C 533.261353 573.964233 588.671997 559.360229 589.385376 498.06424 C 590.093689 436.777588 645.50531 452.10025 682.921326 426.433594 C 720.342651 400.777588 728.885315 353.745605 728.885315 353.745605 C 728.885315 353.745605 736.374939 365.495605 745.453308 367.105591 C 754.547058 368.709717 789.817322 330.225586 804.791992 328.08429 C 819.756042 325.948792 800.515991 377.797607 800.515991 377.797607 C 800.515991 377.797607 800.693054 400.062927 816.73468 407.193604 C 816.73468 407.193604 839.901367 392.5896 834.198669 349.469604 C 828.495605 306.354919 824.933105 287.464294 795.714661 303.865601 C 766.490662 320.256287 756.157349 297.454163 759.006653 279.277588 C 761.860779 261.105591 755.084778 240.433594 708.053345 214.772278 C 661.006653 189.110962 665.282654 156.512268 684.531982 158.646912 C 703.781311 160.781616 719.813293 201.944275 738.515991 195.526917 C 750.48999 191.427979 762.125305 176.996277 742.255615 160.781616 C 721.948914 144.213623 723.015564 93.432251 685.062256 81.672241 C 685.062256 81.672241 704.302307 63.500244 705.91156 43.718933 C 705.91156 43.718933 694.16156 44.786621 686.14093 52.265869 C 686.14093 52.265869 688.281616 41.557617 685.067993 34.083191 C 685.067993 34.083191 666.365356 36.765442 650.865356 52.80188 C 650.865356 52.80188 621.45874 29.817871 584.584045 37.837891 C 584.584045 37.837891 599.026733 45.858643 606.505371 52.80188 C 606.505371 52.80188 584.062683 49.598816 557.869385 65.093628 C 557.869385 65.093628 567.483887 74.182129 581.921387 74.182129 C 581.921387 74.182129 557.869385 82.202942 542.369385 94.48877 C 542.369385 94.48877 549.312012 104.113892 566.947998 107.852783 C 566.947998 107.852783 543.437378 127.092773 521.521362 133.514099 C 521.521362 133.514099 543.974731 143.67041 563.745361 138.321472 C 563.745361 138.321472 543.974731 162.373474 516.177368 166.113464 C 516.177368 166.113464 530.073364 176.81134 555.19873 173.066528 C 555.19873 173.066528 532.214722 186.430542 524.19873 207.81189 C 516.177917 229.186523 505.496002 232.399841 505.496002 232.399841 C 505.496002 232.399841 543.980042 234.540527 557.881348 212.629211 C 557.881348 212.629211 544.517334 227.061218 541.302734 251.11322 C 538.099609 275.170532 527.938721 280.519836 527.938721 280.519836 C 527.917847 280.519836 573.354736 263.046509 582.974731 234.358521 Z"/>
    </g>
</svg>
