<?xml version="1.0" encoding="UTF-8"?>
<!-- Generated by Pixelmator Pro 2.3.8 -->
<svg width="691" height="691" viewBox="0 0 691 691" xmlns="http://www.w3.org/2000/svg" xmlns:xlink="http://www.w3.org/1999/xlink">
    <g id="Group">
        <path id="Path" fill="#ffffff" stroke="none" d="M 330.973358 219.359985 C 330.973358 219.359985 333.108795 282.078674 263.984009 323.417358 C 194.847992 364.750671 197.702667 398.963989 197.702667 398.963989 C 197.702667 398.963989 122.156006 396.828552 108.619995 458.833344 C 95.084 520.838135 118.588806 548.625366 92.223999 584.984009 C 92.223999 584.984009 123.584 570.02002 125.718674 522.973389 C 125.718674 522.973389 132.130127 576.426636 108.61467 612.776001 C 108.61467 612.776001 139.254669 597.812012 143.532013 574.291992 C 143.532013 574.291992 138.552795 618.47998 148.521606 639.854614 C 148.521606 639.854614 167.052277 619.187988 164.204254 584.266724 C 164.204254 584.266724 170.089752 602.261353 187.725616 612.422607 C 187.725616 612.422607 175.959991 571.802612 173.82959 523.329346 C 173.82959 523.329346 183.089996 544.714722 196.272247 556.121338 C 196.272247 556.121338 198.407745 511.93335 178.808258 488.761353 C 159.209595 465.600006 173.105194 438.515991 195.557587 435.313324 C 195.557587 435.313324 189.146149 483.062653 233.333618 505.157349 C 233.333618 505.157349 243.307617 533.66272 217.650909 567.870728 C 217.650909 567.870728 221.921753 614.917358 258.984253 656.245361 C 258.984253 656.245361 243.844269 666.141174 255.869751 674.427979 L 252.218658 689.214661 C 252.218658 689.214661 277.692017 694.558411 299.609344 692.422913 C 299.609344 692.422913 297.473877 669.610901 283.401337 655.188232 C 283.401337 655.188232 251.333344 600.657593 266.297333 579.81897 C 281.261353 558.964233 336.671997 544.360229 337.385345 483.06424 C 338.093658 421.777588 393.50531 437.10025 430.921326 411.433594 C 468.342651 385.777588 476.885315 338.745605 476.885315 338.745605 C 476.885315 338.745605 484.374939 350.495605 493.453308 352.105591 C 502.547058 353.709717 537.817322 315.225586 552.791992 313.08429 C 567.756042 310.948792 548.515991 362.797607 548.515991 362.797607 C 548.515991 362.797607 548.693054 385.062927 564.73468 392.193604 C 564.73468 392.193604 587.901367 377.5896 582.198669 334.469604 C 576.495605 291.354919 572.933105 272.464294 543.714661 288.865601 C 514.490662 305.256287 504.157349 282.454163 507.006653 264.277588 C 509.860779 246.105591 503.084778 225.433594 456.053345 199.772278 C 409.006653 174.110962 413.282654 141.512268 432.531982 143.646912 C 451.781311 145.781616 467.813293 186.944275 486.515991 180.526917 C 498.48999 176.427979 510.125305 161.996277 490.255615 145.781616 C 469.948914 129.213623 471.015564 78.432251 433.062256 66.672241 C 433.062256 66.672241 452.302307 48.500244 453.91156 28.718933 C 453.91156 28.718933 442.16156 29.786621 434.14093 37.265869 C 434.14093 37.265869 436.281616 26.557617 433.067993 19.083191 C 433.067993 19.083191 414.365356 21.765442 398.865356 37.80188 C 398.865356 37.80188 369.45871 14.817871 332.584015 22.837891 C 332.584015 22.837891 347.026703 30.858643 354.505341 37.80188 C 354.505341 37.80188 332.062653 34.598816 305.869354 50.093628 C 305.869354 50.093628 315.483887 59.182129 329.921356 59.182129 C 329.921356 59.182129 305.869354 67.202942 290.369354 79.48877 C 290.369354 79.48877 297.312012 89.113892 314.947998 92.852783 C 314.947998 92.852783 291.437347 112.092773 269.521362 118.514099 C 269.521362 118.514099 291.974701 128.67041 311.745361 123.321472 C 311.745361 123.321472 291.974701 147.373474 264.177338 151.113464 C 264.177338 151.113464 278.073364 161.81134 303.1987 158.066528 C 303.1987 158.066528 280.214691 171.430542 272.1987 192.81189 C 264.177887 214.186523 253.496002 217.399841 253.496002 217.399841 C 253.496002 217.399841 291.980011 219.540527 305.881348 197.629211 C 305.881348 197.629211 292.517334 212.061218 289.302704 236.11322 C 286.099609 260.170532 275.93869 265.519836 275.93869 265.519836 C 275.917847 265.519836 321.354706 248.046509 330.974701 219.358521 Z"/>
    </g>
</svg>
